<svg xmlns="http://www.w3.org/2000/svg" version="1.1" xmlns:xlink="http://www.w3.org/1999/xlink" width="512" height="512" x="0" y="0" viewBox="0 0 68 68" style="enable-background:new 0 0 512 512" xml:space="preserve" class=""><g><path d="M7.816 46.212a.75.75 0 1 0-1.04 1.082l.382.361a.75.75 0 0 0 1.02-1.1zM23.439 53.632a26.986 26.986 0 0 1-13.097-5.26.751.751 0 0 0-.904 1.197 28.494 28.494 0 0 0 13.825 5.552.75.75 0 0 0 .176-1.49zM49.392 34.119c-3.188.914-6.19.91-9.16.19a15.72 15.72 0 0 1-2.56 3.37c-6.08 6.08-15.93 6.08-22.01 0-6.08-6.08-6.08-15.93 0-22.02 5.24-5.24 13.29-5.95 19.3-2.15 2.81-1.47 6.04-2.55 9.5-2.55.08 0 .17 0 .25.01-.35-.41-.73-.82-1.13-1.22-9.34-9.33-24.49-9.33-33.83 0-9.34 9.36-9.34 24.49 0 33.84 9.34 9.33 24.48 9.34 33.83 0 2.75-2.75 4.69-6.01 5.81-9.47zM63.482 54.939l-10.64-10.63a.863.863 0 0 0-1.24 0l-1 .99-3.51-3.51a25.319 25.319 0 0 1-5.29 5.32l3.5 3.49-1 1c-.34.35-.34.9 0 1.25l10.64 10.63a6.036 6.036 0 0 0 8.54 0 6.035 6.035 0 0 0 0-8.54zM43.63 56.74a.75.75 0 1 0-1.06 1.061l.24.241a.75.75 0 1 0 1.061-1.06zM45.679 58.79a.75.75 0 1 0-1.06 1.06l4.736 4.736a.75.75 0 1 0 1.06-1.06zM56.508 12.985a36.915 36.915 0 0 1 5.076 3.776.75.75 0 0 0 .992-1.126 38.478 38.478 0 0 0-5.283-3.928.75.75 0 0 0-.785 1.278zM53.232 11.242c.203.091.403.185.601.28a.75.75 0 0 0 .65-1.352c-.21-.1-.421-.2-.634-.296a.749.749 0 1 0-.617 1.368z" fill="#ffffff" opacity="1" data-original="#000000"></path><path d="M44.463 12.463c-8.8 0-16.172 7.63-18.117 9.834-.3.34-.3.839 0 1.179 1.944 2.206 9.316 9.85 18.117 9.85 8.8 0 16.173-7.644 18.117-9.85.3-.34.3-.84 0-1.179-1.945-2.203-9.317-9.834-18.117-9.834zm0 17.286a6.856 6.856 0 0 1-6.848-6.848c0-3.783 3.073-6.862 6.848-6.862s6.847 3.079 6.847 6.862a6.855 6.855 0 0 1-6.847 6.848z" fill="#ffffff" opacity="1" data-original="#000000"></path><path d="M44.463 17.54c-2.948 0-5.348 2.405-5.348 5.361 0 2.949 2.4 5.348 5.348 5.348A5.353 5.353 0 0 0 49.81 22.9c0-2.956-2.399-5.362-5.347-5.362zm0 3.636a1.72 1.72 0 0 0-1.716 1.721.75.75 0 0 1-1.5 0 3.222 3.222 0 0 1 3.216-3.221.75.75 0 0 1 0 1.5z" fill="#ffffff" opacity="1" data-original="#000000"></path></g></svg>