<svg xmlns="http://www.w3.org/2000/svg" version="1.1" xmlns:xlink="http://www.w3.org/1999/xlink" width="512" height="512" x="0" y="0" viewBox="0 0 490.616 490.616" style="enable-background:new 0 0 512 512" xml:space="preserve" class=""><g><path d="M490.507 159.313a10.669 10.669 0 0 0-2.965-6.805v-.053l-74.667-74.667a10.668 10.668 0 0 0-7.573-3.147H84.053a10.663 10.663 0 0 0-7.605 3.2L3.029 152.508a10.586 10.586 0 0 0-1.995 3.008c-.149.32-.224.651-.341.981a10.537 10.537 0 0 0-.565 2.827c0 .224-.128.416-.128.651v32c0 .149.075.277.085.416.024 1.265.277 2.516.747 3.691 0 .075.085.139.117.213a10.504 10.504 0 0 0 1.952 2.891c.254.252.521.491.8.715a10.494 10.494 0 0 0 2.24 1.515c.325.175.66.331 1.003.469 1.175.472 2.425.729 3.691.757h32v202.667c0 5.891 4.776 10.667 10.667 10.667h10.667c5.891 0 10.667-4.776 10.667-10.667V202.641h32v117.333c0 5.891 4.776 10.667 10.667 10.667h10.667c5.891 0 10.667-4.776 10.667-10.667V202.641H351.97v117.333c0 5.891 4.776 10.667 10.667 10.667h10.667c5.891 0 10.667-4.776 10.667-10.667V202.641h32v202.666c0 5.891 4.776 10.667 10.667 10.667h10.667c5.891 0 10.667-4.776 10.667-10.667V202.641h32a10.539 10.539 0 0 0 3.723-.757 9.97 9.97 0 0 0 1.013-.48 10.5 10.5 0 0 0 2.229-1.504c.279-.227.546-.47.8-.725a10.494 10.494 0 0 0 1.92-2.837c0-.096.107-.16.149-.256a10.5 10.5 0 0 0 .736-3.701c0-.139.075-.245.075-.384v-32.021c.018-.236-.1-.428-.11-.663z" fill="#ffffff" opacity="1" data-original="#000000" class=""></path></g></svg>