<svg xmlns="http://www.w3.org/2000/svg" version="1.1" xmlns:xlink="http://www.w3.org/1999/xlink" width="512" height="512" x="0" y="0" viewBox="0 0 487.379 487.379" style="enable-background:new 0 0 512 512" xml:space="preserve"><g><path d="M393.722 438.868 371.37 271.219h.622c6.564 0 11.885-5.321 11.885-11.885V17.668c0-4.176-2.183-8.03-5.751-10.18a11.873 11.873 0 0 0-11.679-.335c-46.345 24.454-75.357 72.536-75.357 124.952v101.898c0 20.551 16.665 37.215 37.218 37.215h2.818l-22.352 167.649a42.91 42.91 0 0 0 10.228 33.886 42.897 42.897 0 0 0 32.246 14.625 42.898 42.898 0 0 0 32.246-14.625 42.906 42.906 0 0 0 10.228-33.885zM207.482 0c-9.017 0-16.314 7.297-16.314 16.313v91.128h-16.314V16.313C174.854 7.297 167.557 0 158.54 0s-16.313 7.297-16.313 16.313v91.128h-16.314V16.313C125.912 7.297 118.615 0 109.599 0c-9.018 0-16.314 7.297-16.314 16.313v147.24c0 24.2 19.611 43.811 43.811 43.811h3.616L115 438.74a43.865 43.865 0 0 0 10.896 34.047 43.82 43.82 0 0 0 32.645 14.592 43.822 43.822 0 0 0 32.645-14.592 43.858 43.858 0 0 0 10.896-34.047l-25.713-231.375h3.617c24.199 0 43.811-19.611 43.811-43.811V16.313C223.796 7.297 216.499 0 207.482 0z" fill="#ffffff" opacity="1" data-original="#000000"></path></g></svg>