<svg xmlns="http://www.w3.org/2000/svg" version="1.1" xmlns:xlink="http://www.w3.org/1999/xlink" width="512" height="512" x="0" y="0" viewBox="0 0 299.021 299.021" style="enable-background:new 0 0 512 512" xml:space="preserve"><g><path d="M292.866 254.432a6.156 6.156 0 0 1-5.5-3.399c-.354-.684-28.541-52.949-146.169-54.727v51.977a6.146 6.146 0 0 1-3.432 5.513 6.157 6.157 0 0 1-6.461-.63L2.417 154.392A6.154 6.154 0 0 1 0 149.516c0-1.919.898-3.72 2.417-4.888l128.893-98.77a6.164 6.164 0 0 1 6.461-.639 6.14 6.14 0 0 1 3.432 5.509v54.776c3.111-.198 7.164-.37 11.947-.37 43.861 0 145.871 13.952 145.871 143.136a6.15 6.15 0 0 1-4.75 5.993 5.552 5.552 0 0 1-1.405.169z" fill="#ffffff" opacity="1" data-original="#000000"></path></g></svg>